<mxfile host="app.diagrams.net" agent="Mozilla/5.0 (Windows NT 10.0; Win64; x64) AppleWebKit/537.36 (KHTML, like Gecko) Chrome/138.0.0.0 YaBrowser/25.8.0.0 Safari/537.36" version="28.2.5">
  <diagram name="Страница — 1" id="TGeR1ROV8bdmVzYeWKYL">
    <mxGraphModel dx="1451" dy="838" grid="1" gridSize="10" guides="1" tooltips="1" connect="1" arrows="1" fold="1" page="1" pageScale="1" pageWidth="827" pageHeight="1169" math="0" shadow="0">
      <root>
        <mxCell id="0" />
        <mxCell id="1" parent="0" />
        <mxCell id="CxixHgMhHepDWZoMFMFX-1" value="game" style="rounded=0;whiteSpace=wrap;html=1;" vertex="1" parent="1">
          <mxGeometry x="240" y="170" width="90" height="40" as="geometry" />
        </mxCell>
        <mxCell id="CxixHgMhHepDWZoMFMFX-2" value="gamename" style="ellipse;whiteSpace=wrap;html=1;" vertex="1" parent="1">
          <mxGeometry x="120" y="120" width="90" height="60" as="geometry" />
        </mxCell>
        <mxCell id="CxixHgMhHepDWZoMFMFX-4" value="date release" style="ellipse;whiteSpace=wrap;html=1;" vertex="1" parent="1">
          <mxGeometry x="305" y="70" width="80" height="60" as="geometry" />
        </mxCell>
        <mxCell id="CxixHgMhHepDWZoMFMFX-5" value="developer" style="ellipse;whiteSpace=wrap;html=1;" vertex="1" parent="1">
          <mxGeometry x="411" y="240" width="80" height="50" as="geometry" />
        </mxCell>
        <mxCell id="CxixHgMhHepDWZoMFMFX-6" value="&lt;u&gt;gameid&lt;/u&gt;" style="ellipse;whiteSpace=wrap;html=1;" vertex="1" parent="1">
          <mxGeometry x="120" y="190" width="90" height="50" as="geometry" />
        </mxCell>
        <mxCell id="CxixHgMhHepDWZoMFMFX-7" value="publisher" style="ellipse;whiteSpace=wrap;html=1;" vertex="1" parent="1">
          <mxGeometry x="310" y="280" width="90" height="50" as="geometry" />
        </mxCell>
        <mxCell id="CxixHgMhHepDWZoMFMFX-13" value="description" style="ellipse;whiteSpace=wrap;html=1;" vertex="1" parent="1">
          <mxGeometry x="190" y="70" width="90" height="60" as="geometry" />
        </mxCell>
        <mxCell id="CxixHgMhHepDWZoMFMFX-14" value="user" style="rounded=0;whiteSpace=wrap;html=1;" vertex="1" parent="1">
          <mxGeometry x="324" y="660" width="90" height="40" as="geometry" />
        </mxCell>
        <mxCell id="CxixHgMhHepDWZoMFMFX-15" value="&lt;u&gt;userid&lt;/u&gt;" style="ellipse;whiteSpace=wrap;html=1;" vertex="1" parent="1">
          <mxGeometry x="219" y="610" width="90" height="50" as="geometry" />
        </mxCell>
        <mxCell id="CxixHgMhHepDWZoMFMFX-16" value="username" style="ellipse;whiteSpace=wrap;html=1;" vertex="1" parent="1">
          <mxGeometry x="329" y="570" width="80" height="50" as="geometry" />
        </mxCell>
        <mxCell id="CxixHgMhHepDWZoMFMFX-17" value="usermail" style="ellipse;whiteSpace=wrap;html=1;" vertex="1" parent="1">
          <mxGeometry x="419" y="590" width="90" height="50" as="geometry" />
        </mxCell>
        <mxCell id="CxixHgMhHepDWZoMFMFX-18" value="type" style="shape=parallelogram;perimeter=parallelogramPerimeter;whiteSpace=wrap;html=1;fixedSize=1;" vertex="1" parent="1">
          <mxGeometry x="324" y="735" width="90" height="40" as="geometry" />
        </mxCell>
        <mxCell id="CxixHgMhHepDWZoMFMFX-19" value="registrationdate" style="ellipse;whiteSpace=wrap;html=1;" vertex="1" parent="1">
          <mxGeometry x="449" y="690" width="90" height="47.5" as="geometry" />
        </mxCell>
        <mxCell id="CxixHgMhHepDWZoMFMFX-22" value="idplatform" style="ellipse;whiteSpace=wrap;html=1;" vertex="1" parent="1">
          <mxGeometry x="400" y="91.88" width="71" height="60" as="geometry" />
        </mxCell>
        <mxCell id="CxixHgMhHepDWZoMFMFX-23" value="" style="endArrow=none;html=1;rounded=0;entryX=0.5;entryY=1;entryDx=0;entryDy=0;exitX=0.5;exitY=0;exitDx=0;exitDy=0;" edge="1" parent="1" source="CxixHgMhHepDWZoMFMFX-1" target="CxixHgMhHepDWZoMFMFX-13">
          <mxGeometry width="50" height="50" relative="1" as="geometry">
            <mxPoint x="60" y="400" as="sourcePoint" />
            <mxPoint x="110" y="350" as="targetPoint" />
          </mxGeometry>
        </mxCell>
        <mxCell id="CxixHgMhHepDWZoMFMFX-24" value="" style="endArrow=none;html=1;rounded=0;entryX=0.5;entryY=1;entryDx=0;entryDy=0;exitX=0.75;exitY=0;exitDx=0;exitDy=0;" edge="1" parent="1" source="CxixHgMhHepDWZoMFMFX-1" target="CxixHgMhHepDWZoMFMFX-4">
          <mxGeometry width="50" height="50" relative="1" as="geometry">
            <mxPoint x="358" y="219" as="sourcePoint" />
            <mxPoint x="340" y="170" as="targetPoint" />
          </mxGeometry>
        </mxCell>
        <mxCell id="CxixHgMhHepDWZoMFMFX-25" value="" style="endArrow=none;html=1;rounded=0;entryX=0;entryY=1;entryDx=0;entryDy=0;exitX=1;exitY=0;exitDx=0;exitDy=0;" edge="1" parent="1" source="CxixHgMhHepDWZoMFMFX-1" target="CxixHgMhHepDWZoMFMFX-22">
          <mxGeometry width="50" height="50" relative="1" as="geometry">
            <mxPoint x="378" y="229" as="sourcePoint" />
            <mxPoint x="360" y="180" as="targetPoint" />
          </mxGeometry>
        </mxCell>
        <mxCell id="CxixHgMhHepDWZoMFMFX-28" value="" style="endArrow=none;html=1;rounded=0;entryX=1;entryY=1;entryDx=0;entryDy=0;exitX=0;exitY=0;exitDx=0;exitDy=0;" edge="1" parent="1" source="CxixHgMhHepDWZoMFMFX-5" target="CxixHgMhHepDWZoMFMFX-1">
          <mxGeometry width="50" height="50" relative="1" as="geometry">
            <mxPoint x="338" y="279" as="sourcePoint" />
            <mxPoint x="320" y="230" as="targetPoint" />
          </mxGeometry>
        </mxCell>
        <mxCell id="CxixHgMhHepDWZoMFMFX-29" value="" style="endArrow=none;html=1;rounded=0;entryX=0.75;entryY=1;entryDx=0;entryDy=0;exitX=0.5;exitY=0;exitDx=0;exitDy=0;" edge="1" parent="1" source="CxixHgMhHepDWZoMFMFX-7" target="CxixHgMhHepDWZoMFMFX-1">
          <mxGeometry width="50" height="50" relative="1" as="geometry">
            <mxPoint x="308" y="279" as="sourcePoint" />
            <mxPoint x="290" y="230" as="targetPoint" />
          </mxGeometry>
        </mxCell>
        <mxCell id="CxixHgMhHepDWZoMFMFX-31" value="" style="endArrow=none;html=1;rounded=0;entryX=0;entryY=1;entryDx=0;entryDy=0;exitX=1;exitY=0.5;exitDx=0;exitDy=0;" edge="1" parent="1" source="CxixHgMhHepDWZoMFMFX-6" target="CxixHgMhHepDWZoMFMFX-1">
          <mxGeometry width="50" height="50" relative="1" as="geometry">
            <mxPoint x="308" y="379" as="sourcePoint" />
            <mxPoint x="290" y="330" as="targetPoint" />
          </mxGeometry>
        </mxCell>
        <mxCell id="CxixHgMhHepDWZoMFMFX-32" value="" style="endArrow=none;html=1;rounded=0;entryX=0;entryY=0;entryDx=0;entryDy=0;exitX=1;exitY=0.5;exitDx=0;exitDy=0;" edge="1" parent="1" source="CxixHgMhHepDWZoMFMFX-2" target="CxixHgMhHepDWZoMFMFX-1">
          <mxGeometry width="50" height="50" relative="1" as="geometry">
            <mxPoint x="198" y="489" as="sourcePoint" />
            <mxPoint x="180" y="440" as="targetPoint" />
          </mxGeometry>
        </mxCell>
        <mxCell id="CxixHgMhHepDWZoMFMFX-36" value="" style="endArrow=none;html=1;rounded=0;entryX=1;entryY=0.5;entryDx=0;entryDy=0;exitX=0.25;exitY=0;exitDx=0;exitDy=0;" edge="1" parent="1" source="CxixHgMhHepDWZoMFMFX-14" target="CxixHgMhHepDWZoMFMFX-15">
          <mxGeometry width="50" height="50" relative="1" as="geometry">
            <mxPoint x="747" y="549" as="sourcePoint" />
            <mxPoint x="729" y="500" as="targetPoint" />
          </mxGeometry>
        </mxCell>
        <mxCell id="CxixHgMhHepDWZoMFMFX-37" value="" style="endArrow=none;html=1;rounded=0;entryX=0.5;entryY=1;entryDx=0;entryDy=0;exitX=0.5;exitY=0;exitDx=0;exitDy=0;" edge="1" parent="1" source="CxixHgMhHepDWZoMFMFX-14" target="CxixHgMhHepDWZoMFMFX-16">
          <mxGeometry width="50" height="50" relative="1" as="geometry">
            <mxPoint x="677" y="609" as="sourcePoint" />
            <mxPoint x="659" y="560" as="targetPoint" />
          </mxGeometry>
        </mxCell>
        <mxCell id="CxixHgMhHepDWZoMFMFX-38" value="" style="endArrow=none;html=1;rounded=0;entryX=0;entryY=1;entryDx=0;entryDy=0;exitX=0.75;exitY=0;exitDx=0;exitDy=0;" edge="1" parent="1" source="CxixHgMhHepDWZoMFMFX-14" target="CxixHgMhHepDWZoMFMFX-17">
          <mxGeometry width="50" height="50" relative="1" as="geometry">
            <mxPoint x="667" y="689" as="sourcePoint" />
            <mxPoint x="649" y="640" as="targetPoint" />
          </mxGeometry>
        </mxCell>
        <mxCell id="CxixHgMhHepDWZoMFMFX-39" value="" style="endArrow=none;html=1;rounded=0;entryX=0;entryY=0.5;entryDx=0;entryDy=0;exitX=1;exitY=1;exitDx=0;exitDy=0;" edge="1" parent="1" source="CxixHgMhHepDWZoMFMFX-14" target="CxixHgMhHepDWZoMFMFX-19">
          <mxGeometry width="50" height="50" relative="1" as="geometry">
            <mxPoint x="627" y="699" as="sourcePoint" />
            <mxPoint x="609" y="650" as="targetPoint" />
          </mxGeometry>
        </mxCell>
        <mxCell id="CxixHgMhHepDWZoMFMFX-40" value="" style="endArrow=none;html=1;rounded=0;entryX=0.5;entryY=1;entryDx=0;entryDy=0;" edge="1" parent="1" source="CxixHgMhHepDWZoMFMFX-18" target="CxixHgMhHepDWZoMFMFX-14">
          <mxGeometry width="50" height="50" relative="1" as="geometry">
            <mxPoint x="467" y="879" as="sourcePoint" />
            <mxPoint x="449" y="830" as="targetPoint" />
          </mxGeometry>
        </mxCell>
        <mxCell id="CxixHgMhHepDWZoMFMFX-44" value="user rate game" style="shape=hexagon;perimeter=hexagonPerimeter2;whiteSpace=wrap;html=1;fixedSize=1;" vertex="1" parent="1">
          <mxGeometry x="409" y="450" width="120" height="50" as="geometry" />
        </mxCell>
        <mxCell id="CxixHgMhHepDWZoMFMFX-45" value="" style="endArrow=none;html=1;rounded=0;entryX=0.375;entryY=1;entryDx=0;entryDy=0;exitX=0.75;exitY=0;exitDx=0;exitDy=0;" edge="1" parent="1" source="CxixHgMhHepDWZoMFMFX-14" target="CxixHgMhHepDWZoMFMFX-44">
          <mxGeometry width="50" height="50" relative="1" as="geometry">
            <mxPoint x="609" y="520" as="sourcePoint" />
            <mxPoint x="659" y="470" as="targetPoint" />
          </mxGeometry>
        </mxCell>
        <mxCell id="CxixHgMhHepDWZoMFMFX-46" value="" style="endArrow=none;html=1;rounded=0;entryX=0.5;entryY=1;entryDx=0;entryDy=0;exitX=0.375;exitY=0;exitDx=0;exitDy=0;" edge="1" parent="1" source="CxixHgMhHepDWZoMFMFX-44" target="CxixHgMhHepDWZoMFMFX-1">
          <mxGeometry width="50" height="50" relative="1" as="geometry">
            <mxPoint x="399" y="480" as="sourcePoint" />
            <mxPoint x="449" y="430" as="targetPoint" />
            <Array as="points">
              <mxPoint x="270" y="350" />
            </Array>
          </mxGeometry>
        </mxCell>
        <mxCell id="rtKWZ7PwrR_7QdA0yHa8-9" value="idgenre" style="ellipse;whiteSpace=wrap;html=1;" vertex="1" parent="1">
          <mxGeometry x="430" y="170" width="70" height="40" as="geometry" />
        </mxCell>
        <mxCell id="rtKWZ7PwrR_7QdA0yHa8-10" value="" style="endArrow=none;html=1;rounded=0;entryX=0;entryY=0.5;entryDx=0;entryDy=0;exitX=1;exitY=0.25;exitDx=0;exitDy=0;" edge="1" parent="1" source="CxixHgMhHepDWZoMFMFX-1" target="rtKWZ7PwrR_7QdA0yHa8-9">
          <mxGeometry width="50" height="50" relative="1" as="geometry">
            <mxPoint x="550" y="270" as="sourcePoint" />
            <mxPoint x="600" y="220" as="targetPoint" />
          </mxGeometry>
        </mxCell>
        <mxCell id="rtKWZ7PwrR_7QdA0yHa8-21" value="user tag game" style="shape=hexagon;perimeter=hexagonPerimeter2;whiteSpace=wrap;html=1;fixedSize=1;" vertex="1" parent="1">
          <mxGeometry x="259" y="450" width="120" height="50" as="geometry" />
        </mxCell>
        <mxCell id="rtKWZ7PwrR_7QdA0yHa8-22" value="" style="endArrow=none;html=1;rounded=0;entryX=0.375;entryY=1;entryDx=0;entryDy=0;exitX=0.337;exitY=-0.082;exitDx=0;exitDy=0;exitPerimeter=0;" edge="1" parent="1" source="CxixHgMhHepDWZoMFMFX-14" target="rtKWZ7PwrR_7QdA0yHa8-21">
          <mxGeometry width="50" height="50" relative="1" as="geometry">
            <mxPoint x="269" y="570" as="sourcePoint" />
            <mxPoint x="319" y="520" as="targetPoint" />
            <Array as="points">
              <mxPoint x="309" y="580" />
            </Array>
          </mxGeometry>
        </mxCell>
        <mxCell id="rtKWZ7PwrR_7QdA0yHa8-23" value="" style="endArrow=none;html=1;rounded=0;entryX=0.5;entryY=1;entryDx=0;entryDy=0;exitX=0.375;exitY=0;exitDx=0;exitDy=0;" edge="1" parent="1" source="rtKWZ7PwrR_7QdA0yHa8-21" target="CxixHgMhHepDWZoMFMFX-1">
          <mxGeometry width="50" height="50" relative="1" as="geometry">
            <mxPoint x="279" y="430" as="sourcePoint" />
            <mxPoint x="329" y="380" as="targetPoint" />
            <Array as="points">
              <mxPoint x="140" y="360" />
            </Array>
          </mxGeometry>
        </mxCell>
        <mxCell id="rtKWZ7PwrR_7QdA0yHa8-26" value="platform" style="rounded=0;whiteSpace=wrap;html=1;" vertex="1" parent="1">
          <mxGeometry x="590" y="91.88" width="80" height="40" as="geometry" />
        </mxCell>
        <mxCell id="rtKWZ7PwrR_7QdA0yHa8-27" value="genre" style="rounded=0;whiteSpace=wrap;html=1;" vertex="1" parent="1">
          <mxGeometry x="590" y="151.88" width="80" height="40" as="geometry" />
        </mxCell>
        <mxCell id="rtKWZ7PwrR_7QdA0yHa8-29" value="id" style="ellipse;whiteSpace=wrap;html=1;" vertex="1" parent="1">
          <mxGeometry x="585" y="11.88" width="90" height="48.12" as="geometry" />
        </mxCell>
        <mxCell id="rtKWZ7PwrR_7QdA0yHa8-30" value="id" style="ellipse;whiteSpace=wrap;html=1;" vertex="1" parent="1">
          <mxGeometry x="580" y="232.82" width="90" height="48.12" as="geometry" />
        </mxCell>
        <mxCell id="rtKWZ7PwrR_7QdA0yHa8-32" value="name" style="ellipse;whiteSpace=wrap;html=1;" vertex="1" parent="1">
          <mxGeometry x="690" y="11.88" width="90" height="58.12" as="geometry" />
        </mxCell>
        <mxCell id="rtKWZ7PwrR_7QdA0yHa8-33" value="name" style="ellipse;whiteSpace=wrap;html=1;" vertex="1" parent="1">
          <mxGeometry x="690" y="231.88" width="90" height="50" as="geometry" />
        </mxCell>
        <mxCell id="rtKWZ7PwrR_7QdA0yHa8-35" value="" style="endArrow=none;html=1;rounded=0;entryX=0.5;entryY=1;entryDx=0;entryDy=0;exitX=0.5;exitY=0;exitDx=0;exitDy=0;" edge="1" parent="1" source="rtKWZ7PwrR_7QdA0yHa8-30" target="rtKWZ7PwrR_7QdA0yHa8-27">
          <mxGeometry width="50" height="50" relative="1" as="geometry">
            <mxPoint x="480" y="390" as="sourcePoint" />
            <mxPoint x="530" y="340" as="targetPoint" />
          </mxGeometry>
        </mxCell>
        <mxCell id="rtKWZ7PwrR_7QdA0yHa8-36" value="" style="endArrow=none;html=1;rounded=0;entryX=1;entryY=1;entryDx=0;entryDy=0;exitX=0;exitY=0;exitDx=0;exitDy=0;" edge="1" parent="1" source="rtKWZ7PwrR_7QdA0yHa8-33" target="rtKWZ7PwrR_7QdA0yHa8-27">
          <mxGeometry width="50" height="50" relative="1" as="geometry">
            <mxPoint x="650" y="440" as="sourcePoint" />
            <mxPoint x="700" y="390" as="targetPoint" />
          </mxGeometry>
        </mxCell>
        <mxCell id="rtKWZ7PwrR_7QdA0yHa8-37" value="description" style="ellipse;whiteSpace=wrap;html=1;" vertex="1" parent="1">
          <mxGeometry x="690" y="141.88" width="90" height="60" as="geometry" />
        </mxCell>
        <mxCell id="rtKWZ7PwrR_7QdA0yHa8-38" value="" style="endArrow=none;html=1;rounded=0;entryX=1;entryY=0.5;entryDx=0;entryDy=0;exitX=0;exitY=0.5;exitDx=0;exitDy=0;" edge="1" parent="1" source="rtKWZ7PwrR_7QdA0yHa8-37" target="rtKWZ7PwrR_7QdA0yHa8-27">
          <mxGeometry width="50" height="50" relative="1" as="geometry">
            <mxPoint x="760" y="160" as="sourcePoint" />
            <mxPoint x="810" y="110" as="targetPoint" />
          </mxGeometry>
        </mxCell>
        <mxCell id="rtKWZ7PwrR_7QdA0yHa8-39" value="" style="endArrow=none;html=1;rounded=0;entryX=0.5;entryY=1;entryDx=0;entryDy=0;exitX=0.5;exitY=0;exitDx=0;exitDy=0;" edge="1" parent="1" source="rtKWZ7PwrR_7QdA0yHa8-26" target="rtKWZ7PwrR_7QdA0yHa8-29">
          <mxGeometry width="50" height="50" relative="1" as="geometry">
            <mxPoint x="480" y="160" as="sourcePoint" />
            <mxPoint x="530" y="110" as="targetPoint" />
          </mxGeometry>
        </mxCell>
        <mxCell id="rtKWZ7PwrR_7QdA0yHa8-40" value="" style="endArrow=none;html=1;rounded=0;entryX=0;entryY=1;entryDx=0;entryDy=0;exitX=1;exitY=0;exitDx=0;exitDy=0;" edge="1" parent="1" source="rtKWZ7PwrR_7QdA0yHa8-26" target="rtKWZ7PwrR_7QdA0yHa8-32">
          <mxGeometry width="50" height="50" relative="1" as="geometry">
            <mxPoint x="680" y="130" as="sourcePoint" />
            <mxPoint x="700" y="90" as="targetPoint" />
          </mxGeometry>
        </mxCell>
      </root>
    </mxGraphModel>
  </diagram>
</mxfile>
